<svg xmlns="http://www.w3.org/2000/svg" width="66" height="66" viewBox="0 0 66 66" fill="none">
  <path d="M27.1489 27.1226C25.3062 27.1226 23.8516 28.7389 23.8516 30.7108C23.8516 32.6826 25.3386 34.299 27.1489 34.299C28.9915 34.299 30.4462 32.6826 30.4462 30.7108C30.4785 28.7389 28.9915 27.1226 27.1489 27.1226ZM38.9481 27.1226C37.1054 27.1226 35.6507 28.7389 35.6507 30.7108C35.6507 32.6826 37.1378 34.299 38.9481 34.299C40.7907 34.299 42.2453 32.6826 42.2453 30.7108C42.2453 28.7389 40.7907 27.1226 38.9481 27.1226Z" fill="white"/>
  <path d="M54.6588 0H11.3413C7.6884 0 4.71436 2.97404 4.71436 6.65927V50.3646C4.71436 54.0499 7.6884 57.024 11.3413 57.024H47.9997L46.2862 51.0435L50.4241 54.8903L54.3357 58.5109L61.2858 64.653V6.65927C61.2858 2.97404 58.3117 0 54.6588 0ZM42.1807 42.2183C42.1807 42.2183 41.0172 40.8285 40.0473 39.6C44.282 38.4038 45.8984 35.7531 45.8984 35.7531C44.573 36.6259 43.3121 37.24 42.1807 37.6605C40.5646 38.3394 39.0127 38.792 37.4934 39.0503C34.3901 39.6324 31.5454 39.4708 29.1209 39.0183C27.2783 38.6625 25.6943 38.1452 24.3689 37.6282C23.6254 37.3371 22.8172 36.9817 22.0091 36.5291C21.9121 36.4644 21.8151 36.432 21.7181 36.3673C21.6534 36.3349 21.6211 36.3028 21.5888 36.2705C21.0069 35.9471 20.6837 35.7208 20.6837 35.7208C20.6837 35.7208 22.2353 38.307 26.3408 39.5353C25.371 40.7638 24.1749 42.2183 24.1749 42.2183C17.0308 41.992 14.3153 37.3048 14.3153 37.3048C14.3153 26.8957 18.9704 18.4584 18.9704 18.4584C23.6254 14.9672 28.0541 15.0642 28.0541 15.0642L28.3774 15.4521C22.5586 17.1331 19.8755 19.6869 19.8755 19.6869C19.8755 19.6869 20.5867 19.2989 21.7828 18.7494C25.2417 17.2301 27.9894 16.8098 29.1209 16.7128C29.3149 16.6805 29.4765 16.6482 29.6704 16.6482C31.6424 16.3896 33.8729 16.3249 36.2004 16.5835C39.2713 16.9391 42.5688 17.8442 45.9307 19.6869C45.9307 19.6869 43.3768 17.2624 37.8812 15.5814L38.3338 15.0642C38.3338 15.0642 42.7627 14.9672 47.4176 18.4584C47.4176 18.4584 52.0728 26.8957 52.0728 37.3048C52.0728 37.3048 49.325 41.992 42.1807 42.2183Z" fill="white"/>
  <path d="M27.1489 27.1226C25.3062 27.1226 23.8516 28.7389 23.8516 30.7108C23.8516 32.6826 25.3386 34.299 27.1489 34.299C28.9915 34.299 30.4462 32.6826 30.4462 30.7108C30.4785 28.7389 28.9915 27.1226 27.1489 27.1226ZM38.9481 27.1226C37.1054 27.1226 35.6507 28.7389 35.6507 30.7108C35.6507 32.6826 37.1378 34.299 38.9481 34.299C40.7907 34.299 42.2453 32.6826 42.2453 30.7108C42.2453 28.7389 40.7907 27.1226 38.9481 27.1226Z" fill="white"/>
</svg>

