<svg xmlns="http://www.w3.org/2000/svg" width="66" height="66" viewBox="0 0 66 66" fill="none">
  <path d="M11.5602 2.19512L11.5594 2.19543C9.44834 3.0095 7.67478 4.11138 5.89264 5.89389L5.89264 5.8939C4.11258 7.67428 3.02244 9.46109 2.19404 11.564C1.40405 13.6035 0.850642 15.9459 0.695688 19.4201L0.695684 19.4202C0.539038 22.9194 0.499756 24.0371 0.499756 32.9934C0.499756 41.9496 0.539037 43.0674 0.695684 46.5797C0.850651 50.0413 1.4042 52.3845 2.19494 54.4383C3.00886 56.5496 4.11052 58.3235 5.89262 60.1061C7.67269 61.8863 9.4592 62.9768 11.5617 63.8055C13.6007 64.5955 15.9427 65.1489 19.4161 65.3038C22.9277 65.4607 24.0322 65.5 32.9999 65.5C41.9543 65.5 43.072 65.4607 46.5833 65.3038C50.0443 65.1489 52.387 64.5954 54.4403 63.8046C56.5512 62.9905 58.3249 61.8884 60.1069 60.1061C61.887 58.3256 62.9772 56.539 63.8055 54.4361C64.5954 52.3967 65.149 50.0541 65.3039 46.5798C65.4605 43.0674 65.4998 41.9628 65.4998 32.9934C65.4998 24.0371 65.4605 22.9193 65.3039 19.407M11.5602 2.19512L65.8034 19.3848M11.5602 2.19512C13.5997 1.40467 15.942 0.850981 19.403 0.69597L11.5602 2.19512ZM65.3039 19.407L65.8034 19.3848M65.3039 19.407C65.3039 19.4071 65.3039 19.4071 65.3039 19.4071L65.8034 19.3848M65.3039 19.407C65.149 15.9457 64.5953 13.6025 63.8047 11.5487M65.8034 19.3848C65.6463 15.8745 65.083 13.4776 64.2712 11.3689C63.4331 9.19466 62.2939 7.36098 60.4605 5.52728C58.6273 3.6936 56.7807 2.56717 54.6202 1.71581M63.8047 11.5487L64.2685 11.3699L63.8046 11.5485C63.8046 11.5486 63.8047 11.5487 63.8047 11.5487ZM63.8047 11.5487C62.9907 9.43719 61.8891 7.66331 60.1069 5.8808L60.1068 5.88078C58.327 4.10042 56.5404 3.01006 54.4381 2.1815M54.4381 2.1815C54.4386 2.18167 54.4391 2.18185 54.4395 2.18203L54.6202 1.71581M54.4381 2.1815C54.4377 2.18133 54.4373 2.18116 54.4369 2.181L54.6202 1.71581M54.4381 2.1815C52.3991 1.39144 50.0573 0.837957 46.5843 0.682916M54.6202 1.71581C52.5247 0.903749 50.1283 0.340542 46.6056 0.183369M46.6056 0.183369L46.5853 0.682955C46.5849 0.682942 46.5846 0.682929 46.5843 0.682916M46.6056 0.183369C43.07 0.0392936 41.9438 0 32.9867 0C24.0295 0 22.9034 0.0392936 19.3807 0.196467L19.4031 0.695967C22.9146 0.539288 24.0322 0.5 32.9867 0.5C41.9402 0.5 43.0593 0.539273 46.5843 0.682916M46.6056 0.183369L46.5833 0.682873C46.5837 0.682887 46.584 0.682902 46.5843 0.682916M46.3401 5.64338C49.6163 5.78991 51.4119 6.33834 52.6286 6.81686C54.2353 7.44337 55.3943 8.1879 56.5974 9.39126C57.7989 10.593 58.5583 11.7528 59.173 13.365M46.3401 5.64338L59.845 19.6729L60.3445 19.6506C60.1981 16.3709 59.6356 14.5763 59.173 13.365M46.3401 5.64338C42.8459 5.4857 41.8028 5.44642 32.9867 5.44642M46.3401 5.64338L32.9867 5.44642M59.173 13.365L58.7059 13.5431L59.173 13.3648C59.173 13.3648 59.173 13.3649 59.173 13.365ZM60.3445 46.3623L59.845 46.34L60.3445 46.3625C60.3445 46.3625 60.3445 46.3624 60.3445 46.3623ZM60.3445 46.3623C60.1982 49.6385 59.65 51.4347 59.1716 52.6517L60.3445 46.3623ZM32.9867 5.44642C24.1865 5.44642 23.1279 5.47255 19.6324 5.64341C16.354 5.79013 14.56 6.35248 13.349 6.81523C11.7371 7.43004 10.5775 8.18948 9.37594 9.39125C8.17279 10.5946 7.42842 11.754 6.80204 13.3609M32.9867 5.44642L6.80204 13.3609M6.80204 13.3609C6.32365 14.5777 5.77533 16.3739 5.62883 19.6504L6.80204 13.3609ZM32.9867 60.5665C41.8026 60.5665 42.8459 60.5272 46.3399 60.3696L19.6332 60.3696C19.6333 60.3696 19.6333 60.3696 19.6334 60.3696C23.1276 60.5272 24.1709 60.5665 32.9867 60.5665ZM9.37594 56.6217C10.5791 57.8251 11.7382 58.5696 13.3448 59.1963L5.62882 19.6506C5.47119 23.1455 5.43191 24.189 5.43191 33.0066C5.43191 41.8239 5.47119 42.8674 5.62882 46.3624C5.77544 49.6419 6.33774 51.4365 6.80043 52.648C7.41512 54.2603 8.17441 55.42 9.37594 56.6217ZM21.4875 32.9934C21.4875 39.3468 26.6351 44.4956 32.9877 44.4956C39.3401 44.4956 44.4874 39.3468 44.4874 32.9934C44.4874 26.64 39.3401 21.4912 32.9877 21.4912C26.6351 21.4912 21.4875 26.6399 21.4875 32.9934ZM16.5423 33.0066C16.5423 23.9178 23.9135 16.5579 32.9877 16.5579C42.0744 16.5579 49.4329 23.9176 49.4329 33.0066C49.4329 42.0951 42.0614 49.4551 32.9877 49.4551C23.9009 49.4551 16.5423 42.0824 16.5423 33.0066ZM54.0548 15.3768C54.0548 17.2881 52.5108 18.8323 50.6002 18.8323C48.6896 18.8323 47.1455 17.2881 47.1455 15.3768C47.1455 13.4655 48.6896 11.9213 50.6002 11.9213C52.5108 11.9213 54.0548 13.4655 54.0548 15.3768Z" fill="white" stroke="white"/>
</svg>