<svg width="66" height="66" viewBox="0 0 66 66" fill="none" xmlns="http://www.w3.org/2000/svg">
<path d="M20.2867 1C10.2157 1 2 9.21575 2 19.2867V45.7323C2 55.7843 10.2157 64 20.2867 64H46.7323C56.7843 64 65 55.7843 65 45.7133V19.2867C65 9.21575 56.7843 1 46.7133 1H20.2867ZM20.2867 5.84615H46.7133C54.1719 5.84615 60.1538 11.8281 60.1538 19.2867V45.7133C60.1538 53.1719 54.1719 59.1538 46.7323 59.1538H20.2867C12.8281 59.1538 6.84615 53.1719 6.84615 45.7323V19.2867C6.84615 11.8281 12.8281 5.84615 20.2867 5.84615ZM52.8846 10.6923C51.5406 10.6923 50.4615 11.7713 50.4615 13.1154C50.4615 14.4594 51.5406 15.5385 52.8846 15.5385C54.2287 15.5385 55.3077 14.4594 55.3077 13.1154C55.3077 11.7713 54.2287 10.6923 52.8846 10.6923ZM33.5 15.5385C24.1674 15.5385 16.5385 23.1674 16.5385 32.5C16.5385 41.8326 24.1674 49.4615 33.5 49.4615C42.8326 49.4615 50.4615 41.8326 50.4615 32.5C50.4615 23.1674 42.8326 15.5385 33.5 15.5385ZM33.5 20.3846C40.2203 20.3846 45.6154 25.7797 45.6154 32.5C45.6154 39.2203 40.2203 44.6154 33.5 44.6154C26.7797 44.6154 21.3846 39.2203 21.3846 32.5C21.3846 25.7797 26.7797 20.3846 33.5 20.3846Z" fill="white"/>
</svg>
