<svg width="492" height="416" viewBox="0 0 492 416" fill="none" xmlns="http://www.w3.org/2000/svg">
<path d="M169.562 51.2889L27.4379 192.64C12.2844 207.711 12.2844 232.146 27.4379 247.217L169.562 388.568C184.716 403.639 209.284 403.639 224.438 388.568L366.562 247.217C381.716 232.146 381.716 207.711 366.562 192.64L224.438 51.2888C209.284 36.2178 184.716 36.2178 169.562 51.2889Z" fill="#116532"/>
<path d="M175.896 72.4124L48.6791 198.937C37.0225 210.53 37.0225 229.327 48.6791 240.92L175.896 367.445C187.553 379.038 206.452 379.038 218.108 367.445L345.325 240.92C356.982 229.327 356.982 210.53 345.325 198.937L218.108 72.4124C206.452 60.8193 187.553 60.8193 175.896 72.4124Z" fill="#116532"/>
<path d="M103.736 239.6V201.965H109.502L110.033 209.174C111.197 206.695 112.967 204.722 115.345 203.255C117.722 201.788 120.656 201.055 124.146 201.055V207.732H122.401C120.175 207.732 118.127 208.137 116.255 208.946C114.384 209.705 112.891 211.02 111.778 212.891C110.666 214.763 110.109 217.343 110.109 220.631V239.6H103.736Z" fill="white"/>
<path d="M146.813 240.51C143.221 240.51 140.034 239.701 137.252 238.082C134.47 236.413 132.27 234.112 130.651 231.178C129.083 228.244 128.299 224.779 128.299 220.783C128.299 216.837 129.083 213.397 130.651 210.463C132.219 207.479 134.394 205.177 137.176 203.559C140.009 201.889 143.272 201.055 146.964 201.055C150.606 201.055 153.743 201.889 156.373 203.559C159.054 205.177 161.103 207.327 162.519 210.008C163.935 212.689 164.643 215.572 164.643 218.658C164.643 219.214 164.618 219.771 164.568 220.327C164.568 220.884 164.568 221.516 164.568 222.224H134.596C134.748 225.108 135.406 227.51 136.569 229.432C137.783 231.304 139.276 232.72 141.046 233.682C142.867 234.643 144.789 235.123 146.813 235.123C149.443 235.123 151.643 234.516 153.414 233.302C155.184 232.088 156.474 230.444 157.283 228.37H163.581C162.57 231.861 160.622 234.769 157.739 237.096C154.906 239.372 151.264 240.51 146.813 240.51ZM146.813 206.442C143.778 206.442 141.071 207.378 138.694 209.249C136.367 211.07 135.026 213.751 134.672 217.292H158.346C158.194 213.903 157.031 211.247 154.855 209.325C152.68 207.403 149.999 206.442 146.813 206.442Z" fill="white"/>
<path d="M185.611 240.51C182.475 240.51 179.87 239.979 177.796 238.917C175.722 237.855 174.179 236.438 173.167 234.668C172.155 232.897 171.65 230.975 171.65 228.901C171.65 225.057 173.117 222.098 176.05 220.024C178.984 217.95 182.98 216.913 188.039 216.913H198.206V216.458C198.206 213.17 197.346 210.691 195.627 209.022C193.907 207.302 191.605 206.442 188.722 206.442C186.243 206.442 184.093 207.074 182.272 208.339C180.502 209.553 179.389 211.349 178.934 213.726H172.408C172.661 210.995 173.572 208.693 175.14 206.821C176.759 204.95 178.757 203.533 181.134 202.572C183.512 201.561 186.041 201.055 188.722 201.055C193.983 201.055 197.928 202.471 200.558 205.304C203.239 208.086 204.58 211.804 204.58 216.458V239.6H198.889L198.51 232.847C197.448 234.971 195.879 236.792 193.805 238.31C191.782 239.777 189.051 240.51 185.611 240.51ZM186.597 235.123C189.025 235.123 191.099 234.491 192.819 233.226C194.59 231.962 195.93 230.318 196.841 228.294C197.751 226.271 198.206 224.146 198.206 221.921V221.845H188.57C184.827 221.845 182.171 222.502 180.603 223.818C179.085 225.082 178.327 226.676 178.327 228.598C178.327 230.571 179.035 232.164 180.451 233.378C181.918 234.541 183.967 235.123 186.597 235.123Z" fill="white"/>
<path d="M231.441 240.51C227.85 240.51 224.612 239.701 221.729 238.082C218.896 236.413 216.645 234.112 214.976 231.178C213.357 228.193 212.548 224.728 212.548 220.783C212.548 216.837 213.357 213.397 214.976 210.463C216.645 207.479 218.896 205.177 221.729 203.559C224.612 201.889 227.85 201.055 231.441 201.055C235.893 201.055 239.636 202.218 242.671 204.545C245.757 206.872 247.704 209.983 248.513 213.878H241.988C241.482 211.551 240.243 209.755 238.27 208.491C236.297 207.175 233.996 206.518 231.365 206.518C229.241 206.518 227.243 207.049 225.371 208.111C223.5 209.174 221.982 210.767 220.819 212.891C219.655 215.016 219.073 217.646 219.073 220.783C219.073 223.919 219.655 226.549 220.819 228.674C221.982 230.798 223.5 232.417 225.371 233.53C227.243 234.592 229.241 235.123 231.365 235.123C233.996 235.123 236.297 234.491 238.27 233.226C240.243 231.911 241.482 230.065 241.988 227.687H248.513C247.755 231.481 245.832 234.567 242.747 236.944C239.661 239.322 235.893 240.51 231.441 240.51Z" fill="white"/>
<path d="M257.415 239.6V184.969H263.788V208.415C265.053 206.088 266.849 204.292 269.176 203.028C271.502 201.712 274.032 201.055 276.763 201.055C281.113 201.055 284.604 202.421 287.234 205.152C289.864 207.833 291.18 211.981 291.18 217.596V239.6H284.882V218.279C284.882 210.438 281.72 206.518 275.397 206.518C272.109 206.518 269.353 207.707 267.127 210.084C264.901 212.411 263.788 215.749 263.788 220.1V239.6H257.415Z" fill="white"/>
<path d="M103.736 239.6V201.965H109.502L110.033 209.174C111.197 206.695 112.967 204.722 115.345 203.255C117.722 201.788 120.656 201.055 124.146 201.055V207.732H122.401C120.175 207.732 118.127 208.137 116.255 208.946C114.384 209.705 112.891 211.02 111.778 212.891C110.666 214.763 110.109 217.343 110.109 220.631V239.6H103.736Z" stroke="white" stroke-width="1.78854"/>
<path d="M146.813 240.51C143.221 240.51 140.034 239.701 137.252 238.082C134.47 236.413 132.27 234.112 130.651 231.178C129.083 228.244 128.299 224.779 128.299 220.783C128.299 216.837 129.083 213.397 130.651 210.463C132.219 207.479 134.394 205.177 137.176 203.559C140.009 201.889 143.272 201.055 146.964 201.055C150.606 201.055 153.743 201.889 156.373 203.559C159.054 205.177 161.103 207.327 162.519 210.008C163.935 212.689 164.643 215.572 164.643 218.658C164.643 219.214 164.618 219.771 164.568 220.327C164.568 220.884 164.568 221.516 164.568 222.224H134.596C134.748 225.108 135.406 227.51 136.569 229.432C137.783 231.304 139.276 232.72 141.046 233.682C142.867 234.643 144.789 235.123 146.813 235.123C149.443 235.123 151.643 234.516 153.414 233.302C155.184 232.088 156.474 230.444 157.283 228.37H163.581C162.57 231.861 160.622 234.769 157.739 237.096C154.906 239.372 151.264 240.51 146.813 240.51ZM146.813 206.442C143.778 206.442 141.071 207.378 138.694 209.249C136.367 211.07 135.026 213.751 134.672 217.292H158.346C158.194 213.903 157.031 211.247 154.855 209.325C152.68 207.403 149.999 206.442 146.813 206.442Z" stroke="white" stroke-width="1.78854"/>
<path d="M185.611 240.51C182.475 240.51 179.87 239.979 177.796 238.917C175.722 237.855 174.179 236.438 173.167 234.668C172.155 232.897 171.65 230.975 171.65 228.901C171.65 225.057 173.117 222.098 176.05 220.024C178.984 217.95 182.98 216.913 188.039 216.913H198.206V216.458C198.206 213.17 197.346 210.691 195.627 209.022C193.907 207.302 191.605 206.442 188.722 206.442C186.243 206.442 184.093 207.074 182.272 208.339C180.502 209.553 179.389 211.349 178.934 213.726H172.408C172.661 210.995 173.572 208.693 175.14 206.821C176.759 204.95 178.757 203.533 181.134 202.572C183.512 201.561 186.041 201.055 188.722 201.055C193.983 201.055 197.928 202.471 200.558 205.304C203.239 208.086 204.58 211.804 204.58 216.458V239.6H198.889L198.51 232.847C197.448 234.971 195.879 236.792 193.805 238.31C191.782 239.777 189.051 240.51 185.611 240.51ZM186.597 235.123C189.025 235.123 191.099 234.491 192.819 233.226C194.59 231.962 195.93 230.318 196.841 228.294C197.751 226.271 198.206 224.146 198.206 221.921V221.845H188.57C184.827 221.845 182.171 222.502 180.603 223.818C179.085 225.082 178.327 226.676 178.327 228.598C178.327 230.571 179.035 232.164 180.451 233.378C181.918 234.541 183.967 235.123 186.597 235.123Z" stroke="white" stroke-width="1.78854"/>
<path d="M231.441 240.51C227.85 240.51 224.612 239.701 221.729 238.082C218.896 236.413 216.645 234.112 214.976 231.178C213.357 228.193 212.548 224.728 212.548 220.783C212.548 216.837 213.357 213.397 214.976 210.463C216.645 207.479 218.896 205.177 221.729 203.559C224.612 201.889 227.85 201.055 231.441 201.055C235.893 201.055 239.636 202.218 242.671 204.545C245.757 206.872 247.704 209.983 248.513 213.878H241.988C241.482 211.551 240.243 209.755 238.27 208.491C236.297 207.175 233.996 206.518 231.365 206.518C229.241 206.518 227.243 207.049 225.371 208.111C223.5 209.174 221.982 210.767 220.819 212.891C219.655 215.016 219.073 217.646 219.073 220.783C219.073 223.919 219.655 226.549 220.819 228.674C221.982 230.798 223.5 232.417 225.371 233.53C227.243 234.592 229.241 235.123 231.365 235.123C233.996 235.123 236.297 234.491 238.27 233.226C240.243 231.911 241.482 230.065 241.988 227.687H248.513C247.755 231.481 245.832 234.567 242.747 236.944C239.661 239.322 235.893 240.51 231.441 240.51Z" stroke="white" stroke-width="1.78854"/>
<path d="M257.415 239.6V184.969H263.788V208.415C265.053 206.088 266.849 204.292 269.176 203.028C271.502 201.712 274.032 201.055 276.763 201.055C281.113 201.055 284.604 202.421 287.234 205.152C289.864 207.833 291.18 211.981 291.18 217.596V239.6H284.882V218.279C284.882 210.438 281.72 206.518 275.397 206.518C272.109 206.518 269.353 207.707 267.127 210.084C264.901 212.411 263.788 215.749 263.788 220.1V239.6H257.415Z" stroke="white" stroke-width="1.78854"/>
<path d="M413.552 85.7712C406.149 90.4264 398.545 93.1826 392.243 93.8846C385.921 94.5889 381.004 93.221 378.829 89.7612C376.653 86.3013 377.551 81.2772 380.925 75.8848C384.288 70.5095 390.067 64.8504 397.47 60.1953C404.868 55.5431 415.116 51.6944 424.017 49.5345C428.468 48.4547 432.571 47.7996 435.805 47.6749C437.422 47.6125 438.814 47.6831 439.918 47.8955C441.014 48.1064 441.793 48.4503 442.243 48.9079C442.725 49.7017 442.899 50.7127 442.785 51.9154C442.67 53.1305 442.262 54.5249 441.6 56.0521C440.277 59.1064 437.958 62.6504 435.034 66.2828C429.185 73.5468 420.953 81.1173 413.552 85.7712Z" fill="#E6BB68" stroke="#BC9344" stroke-width="0.520427"/>
<path d="M406.334 125.475C397.595 125.147 389.761 123.138 384.16 120.166C378.541 117.184 375.25 113.283 375.404 109.198C375.557 105.114 379.13 101.47 384.957 98.9179C390.764 96.3736 398.728 94.9566 407.467 95.2843C416.2 95.6119 426.834 98.2089 435.404 101.442C439.689 103.059 443.447 104.831 446.189 106.551C447.56 107.411 448.669 108.253 449.462 109.051C450.248 109.843 450.698 110.566 450.811 111.198C450.762 112.125 450.336 113.058 449.564 113.988C448.784 114.927 447.661 115.848 446.254 116.737C443.439 118.514 439.526 120.134 435.063 121.486C426.138 124.189 415.071 125.803 406.334 125.475Z" fill="#E6BB68" stroke="#BC9344" stroke-width="0.520427"/>
<path d="M377.334 148.279C372.365 141.083 369.284 133.604 368.311 127.339C367.336 121.053 368.491 116.082 371.854 113.759C375.217 111.437 380.275 112.118 385.807 115.256C391.323 118.385 397.225 123.915 402.194 131.111C407.161 138.303 411.447 148.375 413.988 157.175C415.258 161.575 416.089 165.646 416.353 168.872C416.485 170.485 416.474 171.878 416.309 172.991C416.146 174.095 415.836 174.888 415.398 175.357C414.625 175.872 413.623 176.09 412.416 176.028C411.197 175.965 409.787 175.618 408.233 175.022C405.124 173.832 401.484 171.667 397.729 168.902C390.22 163.371 382.302 155.473 377.334 148.279Z" fill="#E6BB68" stroke="#BC9344" stroke-width="0.520427"/>
<path d="M334.204 141.865C336.603 133.455 340.42 126.325 344.641 121.592C348.874 116.845 353.447 114.578 357.377 115.699C361.307 116.82 363.996 121.159 365.088 127.425C366.176 133.672 365.656 141.743 363.257 150.153C360.86 158.557 355.806 168.267 350.625 175.821C348.035 179.597 345.419 182.826 343.096 185.079C341.934 186.206 340.852 187.083 339.888 187.663C338.932 188.238 338.122 188.503 337.482 188.462C336.593 188.194 335.788 187.558 335.069 186.587C334.343 185.606 333.715 184.296 333.187 182.717C332.131 179.561 331.489 175.374 331.239 170.718C330.738 161.405 331.806 150.273 334.204 141.865Z" fill="#E6BB68" stroke="#BC9344" stroke-width="0.520427"/>
<path d="M312.169 108.303C319.343 103.303 326.809 100.191 333.07 99.1916C339.352 98.1892 344.328 99.323 346.664 102.676C349.001 106.029 348.342 111.09 345.227 116.636C342.122 122.164 336.617 128.09 329.442 133.09C322.272 138.087 312.218 142.416 303.428 144.994C299.034 146.283 294.966 147.132 291.742 147.409C290.129 147.548 288.736 147.543 287.623 147.383C286.518 147.225 285.724 146.918 285.253 146.482C284.734 145.712 284.512 144.71 284.569 143.504C284.627 142.284 284.968 140.872 285.557 139.315C286.734 136.202 288.883 132.552 291.632 128.786C297.131 121.253 304.996 113.302 312.169 108.303Z" fill="#E6BB68" stroke="#BC9344" stroke-width="0.520427"/>
<path d="M319.482 70.7354C327.59 74.0111 334.277 78.5616 338.536 83.259C342.808 87.9715 344.579 92.7583 343.048 96.5478C341.517 100.337 336.918 102.551 330.572 102.974C324.245 103.395 316.274 102.024 308.165 98.748C300.062 95.4743 290.942 89.4209 283.979 83.4694C280.498 80.494 277.564 77.5514 275.569 75.0027C274.571 73.7279 273.814 72.5588 273.34 71.5391C272.869 70.5272 272.692 69.6943 272.799 69.0618C273.161 68.2065 273.878 67.4732 274.92 66.8613C275.972 66.2431 277.341 65.7574 278.967 65.3995C282.217 64.6837 286.448 64.4885 291.105 64.7325C300.418 65.2203 311.375 67.4606 319.482 70.7354Z" fill="#E6BB68" stroke="#BC9344" stroke-width="0.520427"/>
<path d="M352.776 46.1825C356.998 53.8411 359.312 61.5912 359.65 67.9229C359.99 74.2747 358.341 79.1049 354.762 81.0779C351.183 83.0508 346.219 81.8656 341.029 78.1872C335.856 74.5204 330.539 68.4257 326.317 60.767C322.098 53.1131 318.845 42.6615 317.201 33.6502C316.379 29.1453 315.961 25.0113 316.023 21.7753C316.053 20.1568 316.204 18.772 316.479 17.6816C316.753 16.5995 317.141 15.8416 317.624 15.419C318.444 14.9837 319.463 14.8678 320.657 15.0507C321.864 15.2354 323.233 15.7229 324.719 16.4712C327.692 17.9678 331.097 20.487 334.555 23.6156C341.471 29.8723 348.555 38.5258 352.776 46.1825Z" fill="#E6BB68" stroke="#BC9344" stroke-width="0.520427"/>
<path d="M389.908 53.1548C388.279 61.7468 385.122 69.1935 381.346 74.2878C377.559 79.3983 373.21 82.0692 369.194 81.3078C365.179 80.5464 362.109 76.4689 360.456 70.3267C358.807 64.204 358.595 56.1185 360.225 47.5265C361.853 38.9398 366.009 28.8133 370.486 20.8219C372.724 16.8269 375.037 13.3752 377.147 10.921C378.203 9.69355 379.201 8.72259 380.109 8.05809C381.009 7.39866 381.791 7.06211 382.433 7.04425C383.342 7.23165 384.201 7.79216 385.005 8.69419C385.817 9.6056 386.561 10.8537 387.229 12.3778C388.566 15.4262 389.583 19.5375 390.254 24.1524C391.594 33.3815 391.536 44.565 389.908 53.1548Z" fill="#E6BB68" stroke="#BC9344" stroke-width="0.520427"/>
<path d="M337.761 57.6905C343.478 64.3079 347.349 71.4099 348.992 77.534C350.641 83.6776 350.029 88.7445 346.937 91.4165C343.844 94.0885 338.742 93.958 332.903 91.435C327.082 88.9201 320.617 84.0598 314.9 77.4425C309.186 70.8293 303.838 61.2789 300.361 52.8041C298.623 48.5674 297.357 44.6097 296.747 41.4313C296.441 39.8416 296.302 38.4557 296.345 37.3319C296.389 36.2166 296.611 35.3946 296.996 34.8812C297.708 34.2853 298.681 33.9607 299.887 33.892C301.106 33.8227 302.546 34.0159 304.155 34.4399C307.374 35.2877 311.227 37.0465 315.258 39.3904C323.321 44.0778 332.045 51.075 337.761 57.6905Z" fill="#EDC679" stroke="#BC9344" stroke-width="0.520427"/>
<path d="M314.763 88.4089C323.508 88.5017 331.394 90.2999 337.073 93.1205C342.769 95.9501 346.164 99.7617 346.12 103.848C346.077 107.935 342.603 111.674 336.847 114.382C331.11 117.081 323.187 118.712 314.443 118.619C305.704 118.526 295.004 116.216 286.35 113.214C282.023 111.713 278.219 110.043 275.432 108.398C274.038 107.575 272.906 106.762 272.093 105.986C271.285 105.215 270.816 104.504 270.686 103.876C270.71 102.948 271.111 102.004 271.858 101.054C272.612 100.095 273.71 99.1429 275.093 98.2168C277.859 96.3648 281.727 94.64 286.152 93.1687C295.002 90.2263 306.021 88.3161 314.763 88.4089Z" fill="#EDC679" stroke="#BC9344" stroke-width="0.520427"/>
<path d="M320.972 128.209C326.206 121.203 332.309 115.896 337.937 112.974C343.582 110.043 348.662 109.551 351.936 111.996C355.211 114.442 356.181 119.453 354.972 125.698C353.768 131.923 350.411 139.282 345.178 146.289C339.948 153.291 331.771 160.568 324.242 165.785C320.478 168.393 316.885 170.481 313.913 171.76C312.426 172.4 311.102 172.835 309.995 173.034C308.897 173.231 308.046 173.191 307.462 172.925C306.727 172.358 306.201 171.477 305.874 170.314C305.545 169.139 305.424 167.691 305.492 166.028C305.628 162.703 306.517 158.562 307.939 154.12C310.783 145.239 315.741 135.214 320.972 128.209Z" fill="#EDC679" stroke="#BC9344" stroke-width="0.520427"/>
<path d="M354.618 146.606C353.006 138.011 353.235 129.926 354.896 123.806C356.563 117.667 359.64 113.596 363.657 112.843C367.675 112.09 372.018 114.77 375.795 119.888C379.56 124.991 382.701 132.444 384.313 141.039C385.923 149.629 385.74 160.574 384.48 169.647C383.85 174.183 382.953 178.24 381.881 181.294C381.345 182.821 380.769 184.089 380.165 185.038C379.567 185.98 378.961 186.579 378.37 186.829C377.455 186.985 376.45 186.776 375.374 186.229C374.286 185.676 373.139 184.784 371.961 183.608C369.606 181.256 367.161 177.797 364.856 173.743C360.248 165.636 356.229 155.199 354.618 146.606Z" fill="#EDC679" stroke="#BC9344" stroke-width="0.520427"/>
<path d="M393.052 136.602C385.275 132.602 379.031 127.461 375.217 122.396C371.392 117.314 370.065 112.385 371.934 108.751C373.804 105.117 378.585 103.331 384.944 103.488C391.283 103.645 399.096 105.736 406.872 109.737C414.644 113.735 423.175 120.593 429.567 127.154C432.763 130.434 435.416 133.632 437.17 136.352C438.048 137.712 438.696 138.945 439.075 140.004C439.452 141.054 439.553 141.9 439.388 142.52C438.95 143.339 438.169 144.004 437.076 144.518C435.971 145.038 434.564 145.397 432.912 145.606C429.61 146.022 425.379 145.831 420.764 145.164C411.534 143.83 400.826 140.602 393.052 136.602Z" fill="#EDC679" stroke="#BC9344" stroke-width="0.520427"/>
<path d="M413.663 104.734C405.167 106.805 397.081 107.011 390.882 105.681C384.662 104.347 380.432 101.493 379.464 97.5219C378.496 93.5511 380.939 89.0699 385.847 85.0236C390.739 80.9901 398.013 77.4526 406.509 75.3817C415 73.3122 425.939 72.907 435.066 73.6775C439.629 74.0627 443.729 74.7409 446.836 75.6468C448.39 76.0999 449.687 76.6075 450.668 77.1588C451.64 77.7059 452.27 78.2788 452.552 78.8553C452.758 79.7609 452.603 80.775 452.114 81.8797C451.62 82.9958 450.791 84.1893 449.68 85.4283C447.458 87.9063 444.136 90.5334 440.211 93.0526C432.363 98.0904 422.157 102.664 413.663 104.734Z" fill="#EDC679" stroke="#BC9344" stroke-width="0.520427"/>
<path d="M403.435 65.2135C399.283 72.9106 394.022 79.0539 388.883 82.768C383.728 86.494 378.775 87.7247 375.177 85.7847C371.58 83.8447 369.888 79.0299 370.169 72.6752C370.449 66.3406 372.692 58.5696 376.843 50.8725C380.992 43.1802 388.015 34.7846 394.699 28.5213C398.041 25.3901 401.29 22.7994 404.043 21.0983C405.42 20.2474 406.666 19.6239 407.732 19.265C408.789 18.9087 409.637 18.8245 410.253 19.0014C411.064 19.455 411.713 20.2491 412.206 21.3519C412.704 22.4662 413.036 23.8807 413.212 25.5356C413.565 28.8455 413.291 33.0721 412.535 37.6736C411.021 46.8759 407.585 57.5184 403.435 65.2135Z" fill="#EDC679" stroke="#BC9344" stroke-width="0.520427"/>
<path d="M369.839 48.3798C371.601 56.9455 371.514 65.0333 369.961 71.1808C368.403 77.348 365.397 81.4726 361.394 82.2962C357.391 83.1198 353.001 80.5167 349.135 75.4656C345.281 70.4305 342.009 63.0337 340.246 54.468C338.485 45.9076 338.476 34.9615 339.576 25.8677C340.126 21.3215 340.952 17.2493 341.97 14.1769C342.479 12.6403 343.033 11.3623 343.619 10.4026C344.201 9.45014 344.796 8.8413 345.383 8.58078C346.295 8.40807 347.303 8.59951 348.389 9.12802C349.487 9.66201 350.649 10.5332 351.847 11.6885C354.243 13.999 356.749 17.414 359.124 21.4269C363.875 29.452 368.077 39.8163 369.839 48.3798Z" fill="#EDC679" stroke="#BC9344" stroke-width="0.520427"/>
<circle cx="361.803" cy="96.6263" r="41.4959" transform="rotate(-13.6978 361.803 96.6263)" fill="#6F4A29"/>
<path d="M394.041 280.709C390.182 283.136 386.218 284.573 382.933 284.938C379.638 285.306 377.075 284.593 375.941 282.789C374.807 280.986 375.275 278.367 377.033 275.556C378.786 272.754 381.799 269.804 385.658 267.377C389.514 264.952 394.856 262.946 399.496 261.82C401.816 261.258 403.954 260.916 405.64 260.851C406.483 260.819 407.209 260.855 407.784 260.966C408.356 261.076 408.762 261.255 408.996 261.494C409.247 261.908 409.338 262.435 409.279 263.061C409.219 263.695 409.006 264.422 408.661 265.218C407.972 266.81 406.763 268.657 405.238 270.551C402.19 274.337 397.899 278.283 394.041 280.709Z" fill="#E6BB68" stroke="#BC9344" stroke-width="0.271279"/>
<path d="M390.279 301.406C385.723 301.235 381.639 300.187 378.72 298.638C375.791 297.084 374.076 295.05 374.156 292.921C374.235 290.792 376.098 288.893 379.135 287.562C382.163 286.236 386.313 285.497 390.869 285.668C395.421 285.839 400.964 287.193 405.432 288.878C407.665 289.721 409.624 290.644 411.053 291.541C411.768 291.989 412.346 292.428 412.759 292.844C413.169 293.257 413.404 293.634 413.463 293.963C413.437 294.447 413.215 294.933 412.813 295.418C412.406 295.907 411.821 296.387 411.087 296.851C409.62 297.777 407.58 298.621 405.254 299.326C400.601 300.735 394.833 301.576 390.279 301.406Z" fill="#E6BB68" stroke="#BC9344" stroke-width="0.271279"/>
<path d="M375.162 313.292C372.571 309.541 370.966 305.643 370.459 302.377C369.95 299.1 370.552 296.509 372.305 295.298C374.058 294.088 376.695 294.443 379.579 296.079C382.454 297.71 385.53 300.592 388.121 304.343C390.709 308.092 392.943 313.342 394.268 317.93C394.93 320.223 395.363 322.345 395.501 324.027C395.57 324.868 395.564 325.594 395.478 326.174C395.393 326.749 395.231 327.163 395.003 327.407C394.6 327.676 394.078 327.789 393.449 327.757C392.814 327.724 392.078 327.543 391.268 327.233C389.648 326.612 387.75 325.484 385.793 324.042C381.879 321.159 377.751 317.042 375.162 313.292Z" fill="#E6BB68" stroke="#BC9344" stroke-width="0.271279"/>
<path d="M352.68 309.949C353.93 305.565 355.92 301.848 358.12 299.382C360.327 296.907 362.71 295.725 364.759 296.31C366.808 296.894 368.209 299.155 368.778 302.422C369.345 305.678 369.075 309.885 367.824 314.269C366.574 318.65 363.94 323.711 361.239 327.649C359.889 329.617 358.526 331.3 357.315 332.475C356.709 333.062 356.145 333.519 355.643 333.822C355.144 334.121 354.722 334.259 354.388 334.238C353.925 334.098 353.505 333.767 353.131 333.261C352.752 332.749 352.425 332.066 352.15 331.244C351.599 329.598 351.265 327.416 351.134 324.989C350.873 320.134 351.43 314.331 352.68 309.949Z" fill="#E6BB68" stroke="#BC9344" stroke-width="0.271279"/>
<path d="M341.193 292.455C344.933 289.848 348.825 288.226 352.089 287.705C355.363 287.182 357.957 287.773 359.175 289.521C360.393 291.269 360.049 293.907 358.425 296.798C356.807 299.68 353.937 302.769 350.197 305.375C346.46 307.98 341.219 310.236 336.637 311.58C334.347 312.252 332.227 312.694 330.546 312.839C329.705 312.911 328.979 312.909 328.399 312.825C327.823 312.743 327.409 312.583 327.163 312.356C326.893 311.954 326.777 311.432 326.807 310.803C326.837 310.168 327.015 309.431 327.322 308.62C327.935 306.997 329.055 305.095 330.489 303.131C333.355 299.205 337.454 295.06 341.193 292.455Z" fill="#E6BB68" stroke="#BC9344" stroke-width="0.271279"/>
<path d="M345.006 272.872C349.232 274.579 352.718 276.951 354.938 279.4C357.165 281.856 358.088 284.351 357.29 286.327C356.492 288.302 354.095 289.456 350.786 289.676C347.488 289.896 343.333 289.181 339.107 287.474C334.883 285.767 330.129 282.612 326.499 279.509C324.685 277.958 323.155 276.425 322.116 275.096C321.596 274.432 321.201 273.822 320.954 273.291C320.708 272.763 320.616 272.329 320.672 271.999C320.86 271.553 321.234 271.171 321.777 270.852C322.326 270.53 323.039 270.277 323.887 270.09C325.581 269.717 327.787 269.615 330.214 269.743C335.069 269.997 340.78 271.165 345.006 272.872Z" fill="#E6BB68" stroke="#BC9344" stroke-width="0.271279"/>
<path d="M362.36 260.073C364.561 264.065 365.767 268.105 365.944 271.406C366.121 274.717 365.261 277.234 363.396 278.263C361.53 279.291 358.942 278.673 356.237 276.756C353.541 274.845 350.769 271.668 348.569 267.676C346.369 263.686 344.674 258.238 343.817 253.541C343.388 251.192 343.17 249.037 343.202 247.351C343.218 246.507 343.297 245.785 343.44 245.217C343.583 244.653 343.785 244.258 344.037 244.037C344.465 243.81 344.996 243.75 345.618 243.845C346.247 243.942 346.961 244.196 347.735 244.586C349.285 245.366 351.06 246.679 352.863 248.31C356.468 251.571 360.16 256.082 362.36 260.073Z" fill="#E6BB68" stroke="#BC9344" stroke-width="0.271279"/>
<path d="M381.716 263.708C380.867 268.186 379.221 272.068 377.253 274.723C375.279 277.387 373.012 278.78 370.919 278.383C368.826 277.986 367.226 275.86 366.364 272.659C365.505 269.467 365.394 265.252 366.243 260.774C367.092 256.298 369.258 251.019 371.592 246.854C372.759 244.771 373.965 242.972 375.064 241.693C375.615 241.053 376.135 240.547 376.608 240.2C377.078 239.857 377.485 239.681 377.82 239.672C378.294 239.77 378.742 240.062 379.16 240.532C379.584 241.007 379.971 241.658 380.32 242.452C381.017 244.041 381.547 246.184 381.896 248.59C382.595 253.4 382.565 259.23 381.716 263.708Z" fill="#E6BB68" stroke="#BC9344" stroke-width="0.271279"/>
<path d="M354.534 266.072C357.514 269.521 359.532 273.223 360.388 276.416C361.248 279.618 360.929 282.259 359.317 283.652C357.705 285.045 355.045 284.977 352.002 283.662C348.967 282.351 345.597 279.817 342.617 276.368C339.639 272.921 336.851 267.942 335.039 263.525C334.133 261.316 333.473 259.253 333.155 257.597C332.996 256.768 332.923 256.046 332.945 255.46C332.968 254.878 333.084 254.45 333.285 254.182C333.656 253.872 334.163 253.703 334.792 253.667C335.427 253.631 336.178 253.731 337.016 253.952C338.694 254.394 340.703 255.311 342.804 256.533C347.007 258.976 351.554 262.624 354.534 266.072Z" fill="#EDC679" stroke="#BC9344" stroke-width="0.271279"/>
<path d="M342.546 282.084C347.104 282.133 351.215 283.07 354.175 284.54C357.145 286.015 358.914 288.002 358.891 290.132C358.869 292.263 357.058 294.211 354.058 295.623C351.067 297.03 346.937 297.88 342.379 297.832C337.824 297.783 332.246 296.579 327.735 295.014C325.48 294.232 323.497 293.362 322.044 292.504C321.317 292.075 320.728 291.651 320.304 291.246C319.883 290.845 319.638 290.474 319.57 290.147C319.583 289.663 319.792 289.171 320.181 288.676C320.574 288.176 321.147 287.68 321.867 287.197C323.309 286.231 325.326 285.332 327.632 284.565C332.245 283.032 337.989 282.036 342.546 282.084Z" fill="#EDC679" stroke="#BC9344" stroke-width="0.271279"/>
<path d="M345.783 302.831C348.511 299.178 351.692 296.412 354.626 294.889C357.568 293.361 360.216 293.105 361.923 294.379C363.63 295.654 364.135 298.266 363.505 301.522C362.878 304.767 361.128 308.602 358.4 312.255C355.674 315.905 351.412 319.698 347.487 322.418C345.525 323.777 343.652 324.865 342.103 325.532C341.328 325.866 340.638 326.092 340.061 326.196C339.488 326.299 339.045 326.278 338.74 326.14C338.357 325.844 338.083 325.385 337.913 324.778C337.741 324.166 337.678 323.411 337.713 322.544C337.784 320.811 338.247 318.652 338.989 316.337C340.471 311.708 343.056 306.482 345.783 302.831Z" fill="#EDC679" stroke="#BC9344" stroke-width="0.271279"/>
<path d="M363.321 312.42C362.481 307.94 362.6 303.725 363.466 300.536C364.335 297.336 365.939 295.213 368.033 294.821C370.127 294.428 372.391 295.825 374.36 298.493C376.322 301.153 377.96 305.038 378.8 309.518C379.639 313.996 379.544 319.701 378.887 324.43C378.559 326.795 378.091 328.91 377.532 330.502C377.253 331.298 376.952 331.959 376.638 332.454C376.326 332.945 376.01 333.256 375.702 333.387C375.225 333.468 374.701 333.359 374.14 333.074C373.573 332.786 372.975 332.321 372.361 331.708C371.134 330.482 369.859 328.679 368.658 326.566C366.256 322.34 364.161 316.899 363.321 312.42Z" fill="#EDC679" stroke="#BC9344" stroke-width="0.271279"/>
<path d="M383.355 307.206C379.301 305.12 376.046 302.441 374.058 299.8C372.064 297.151 371.372 294.582 372.347 292.688C373.322 290.793 375.814 289.862 379.128 289.944C382.433 290.026 386.505 291.116 390.559 293.202C394.61 295.286 399.057 298.861 402.389 302.281C404.055 303.991 405.438 305.657 406.352 307.075C406.81 307.784 407.147 308.427 407.345 308.979C407.541 309.526 407.594 309.967 407.508 310.29C407.28 310.717 406.873 311.064 406.303 311.332C405.727 311.603 404.993 311.79 404.133 311.899C402.411 312.116 400.206 312.016 397.8 311.669C392.989 310.973 387.407 309.29 383.355 307.206Z" fill="#EDC679" stroke="#BC9344" stroke-width="0.271279"/>
<path d="M394.099 290.594C389.67 291.674 385.456 291.781 382.224 291.088C378.982 290.392 376.777 288.904 376.272 286.835C375.768 284.765 377.041 282.429 379.599 280.32C382.15 278.217 385.941 276.373 390.37 275.294C394.796 274.215 400.498 274.004 405.256 274.405C407.634 274.606 409.771 274.96 411.391 275.432C412.201 275.668 412.877 275.933 413.388 276.22C413.895 276.505 414.224 276.804 414.37 277.104C414.477 277.576 414.397 278.105 414.142 278.681C413.884 279.263 413.452 279.885 412.873 280.531C411.715 281.822 409.983 283.192 407.937 284.505C403.847 287.131 398.527 289.515 394.099 290.594Z" fill="#EDC679" stroke="#BC9344" stroke-width="0.271279"/>
<path d="M388.767 269.993C386.603 274.006 383.861 277.208 381.182 279.144C378.495 281.086 375.913 281.728 374.038 280.716C372.163 279.705 371.28 277.195 371.427 273.883C371.573 270.581 372.742 266.53 374.906 262.518C377.068 258.508 380.73 254.132 384.214 250.867C385.956 249.235 387.649 247.885 389.084 246.998C389.802 246.554 390.451 246.229 391.007 246.042C391.558 245.856 392 245.813 392.322 245.905C392.744 246.141 393.082 246.555 393.34 247.13C393.599 247.711 393.772 248.448 393.864 249.311C394.048 251.036 393.905 253.239 393.511 255.638C392.722 260.435 390.93 265.982 388.767 269.993Z" fill="#EDC679" stroke="#BC9344" stroke-width="0.271279"/>
<path d="M371.255 261.219C372.173 265.684 372.128 269.899 371.319 273.104C370.506 276.319 368.94 278.469 366.853 278.898C364.766 279.327 362.478 277.97 360.463 275.337C358.454 272.713 356.748 268.857 355.829 264.392C354.911 259.93 354.906 254.224 355.48 249.484C355.767 247.114 356.197 244.991 356.728 243.39C356.993 242.589 357.282 241.923 357.587 241.423C357.891 240.926 358.201 240.609 358.507 240.473C358.982 240.383 359.508 240.483 360.074 240.758C360.646 241.037 361.252 241.491 361.877 242.093C363.126 243.297 364.431 245.077 365.67 247.169C368.146 251.352 370.336 256.755 371.255 261.219Z" fill="#EDC679" stroke="#BC9344" stroke-width="0.271279"/>
<circle cx="367.066" cy="286.368" r="21.6302" transform="rotate(-13.6978 367.066 286.368)" fill="#6F4A29"/>
<path d="M475.837 210.838C473.434 212.349 470.966 213.243 468.921 213.471C466.869 213.7 465.273 213.256 464.567 212.133C463.861 211.01 464.152 209.379 465.247 207.629C466.339 205.885 468.214 204.048 470.617 202.537C473.018 201.027 476.344 199.778 479.233 199.077C480.678 198.726 482.009 198.514 483.059 198.473C483.584 198.453 484.036 198.476 484.394 198.545C484.75 198.613 485.003 198.725 485.149 198.874C485.305 199.131 485.362 199.459 485.325 199.85C485.287 200.244 485.155 200.697 484.94 201.192C484.511 202.184 483.758 203.334 482.809 204.513C480.911 206.87 478.239 209.327 475.837 210.838Z" fill="#E6BB68" stroke="#BC9344" stroke-width="0.168909"/>
<path d="M473.494 223.724C470.658 223.618 468.115 222.966 466.297 222.001C464.474 221.033 463.406 219.767 463.455 218.441C463.505 217.116 464.665 215.933 466.556 215.105C468.441 214.279 471.025 213.819 473.862 213.926C476.696 214.032 480.148 214.875 482.929 215.924C484.32 216.449 485.54 217.024 486.429 217.582C486.875 217.861 487.235 218.135 487.492 218.394C487.747 218.651 487.893 218.885 487.93 219.09C487.914 219.391 487.775 219.694 487.525 219.996C487.272 220.301 486.907 220.6 486.451 220.888C485.537 221.465 484.267 221.991 482.818 222.429C479.922 223.307 476.33 223.831 473.494 223.724Z" fill="#E6BB68" stroke="#BC9344" stroke-width="0.168909"/>
<path d="M464.082 231.125C462.469 228.79 461.469 226.363 461.153 224.329C460.837 222.289 461.212 220.675 462.303 219.922C463.395 219.168 465.036 219.389 466.832 220.408C468.622 221.423 470.538 223.218 472.15 225.553C473.762 227.887 475.153 231.156 475.978 234.013C476.39 235.441 476.66 236.762 476.746 237.809C476.789 238.333 476.785 238.785 476.732 239.146C476.679 239.504 476.578 239.762 476.436 239.914C476.185 240.081 475.86 240.152 475.468 240.132C475.073 240.111 474.615 239.998 474.11 239.805C473.101 239.419 471.92 238.716 470.701 237.819C468.264 236.024 465.694 233.46 464.082 231.125Z" fill="#E6BB68" stroke="#BC9344" stroke-width="0.168909"/>
<path d="M450.084 229.044C450.862 226.314 452.101 224 453.471 222.464C454.845 220.923 456.329 220.187 457.605 220.551C458.88 220.915 459.753 222.323 460.107 224.357C460.46 226.384 460.292 229.004 459.513 231.733C458.735 234.461 457.095 237.613 455.413 240.064C454.572 241.29 453.724 242.338 452.97 243.069C452.592 243.435 452.241 243.72 451.928 243.908C451.618 244.094 451.355 244.18 451.147 244.167C450.859 244.08 450.598 243.874 450.364 243.559C450.129 243.24 449.925 242.815 449.753 242.303C449.411 241.278 449.202 239.919 449.121 238.408C448.959 235.386 449.305 231.772 450.084 229.044Z" fill="#E6BB68" stroke="#BC9344" stroke-width="0.168909"/>
<path d="M442.932 218.151C445.26 216.528 447.683 215.518 449.716 215.194C451.754 214.868 453.369 215.236 454.128 216.325C454.886 217.413 454.672 219.055 453.661 220.855C452.653 222.65 450.867 224.573 448.538 226.196C446.211 227.817 442.948 229.222 440.095 230.059C438.669 230.478 437.349 230.753 436.302 230.843C435.779 230.888 435.327 230.887 434.965 230.835C434.607 230.783 434.349 230.684 434.196 230.542C434.028 230.292 433.956 229.967 433.974 229.575C433.993 229.18 434.104 228.721 434.295 228.216C434.677 227.206 435.374 226.021 436.267 224.799C438.051 222.354 440.604 219.773 442.932 218.151Z" fill="#E6BB68" stroke="#BC9344" stroke-width="0.168909"/>
<path d="M445.305 205.958C447.937 207.021 450.107 208.498 451.49 210.023C452.876 211.552 453.451 213.106 452.954 214.336C452.457 215.565 450.965 216.284 448.905 216.421C446.851 216.558 444.264 216.113 441.633 215.05C439.003 213.987 436.043 212.022 433.783 210.091C432.653 209.125 431.701 208.17 431.053 207.343C430.729 206.929 430.484 206.55 430.33 206.219C430.177 205.89 430.119 205.62 430.154 205.415C430.271 205.137 430.504 204.899 430.842 204.7C431.184 204.5 431.628 204.342 432.156 204.226C433.211 203.994 434.584 203.93 436.096 204.01C439.118 204.168 442.674 204.895 445.305 205.958Z" fill="#E6BB68" stroke="#BC9344" stroke-width="0.168909"/>
<path d="M456.111 197.989C457.482 200.475 458.233 202.99 458.342 205.045C458.453 207.107 457.918 208.674 456.756 209.315C455.594 209.955 453.983 209.57 452.299 208.376C450.62 207.186 448.894 205.208 447.524 202.723C446.155 200.238 445.099 196.846 444.565 193.922C444.298 192.459 444.163 191.118 444.183 190.067C444.193 189.542 444.242 189.093 444.331 188.739C444.42 188.388 444.546 188.142 444.702 188.004C444.969 187.863 445.299 187.826 445.687 187.885C446.079 187.945 446.523 188.103 447.005 188.346C447.97 188.832 449.075 189.649 450.198 190.665C452.442 192.695 454.742 195.504 456.111 197.989Z" fill="#E6BB68" stroke="#BC9344" stroke-width="0.168909"/>
<path d="M468.163 200.252C467.634 203.04 466.609 205.457 465.384 207.111C464.155 208.769 462.743 209.636 461.44 209.389C460.137 209.142 459.141 207.819 458.604 205.825C458.069 203.838 458 201.214 458.529 198.425C459.057 195.638 460.406 192.352 461.859 189.758C462.586 188.461 463.336 187.341 464.021 186.544C464.364 186.146 464.688 185.831 464.983 185.615C465.275 185.401 465.529 185.292 465.737 185.286C466.032 185.347 466.311 185.529 466.572 185.822C466.835 186.118 467.077 186.523 467.293 187.017C467.727 188.007 468.058 189.341 468.275 190.839C468.71 193.834 468.691 197.464 468.163 200.252Z" fill="#E6BB68" stroke="#BC9344" stroke-width="0.168909"/>
<path d="M451.238 201.724C453.094 203.872 454.35 206.177 454.883 208.164C455.418 210.158 455.22 211.803 454.216 212.67C453.212 213.537 451.556 213.495 449.661 212.676C447.772 211.86 445.674 210.282 443.818 208.135C441.964 205.988 440.228 202.889 439.1 200.138C438.535 198.763 438.125 197.478 437.926 196.447C437.827 195.931 437.782 195.481 437.796 195.116C437.81 194.754 437.882 194.488 438.007 194.321C438.238 194.128 438.554 194.022 438.946 194C439.341 193.977 439.809 194.04 440.331 194.178C441.376 194.453 442.626 195.024 443.935 195.784C446.551 197.306 449.383 199.577 451.238 201.724Z" fill="#EDC679" stroke="#BC9344" stroke-width="0.168909"/>
<path d="M443.774 211.694C446.612 211.724 449.171 212.308 451.015 213.223C452.864 214.142 453.965 215.379 453.951 216.705C453.937 218.031 452.809 219.245 450.941 220.124C449.079 221 446.508 221.529 443.67 221.499C440.833 221.469 437.361 220.719 434.552 219.745C433.148 219.258 431.913 218.716 431.008 218.182C430.556 217.914 430.189 217.651 429.925 217.399C429.663 217.149 429.51 216.918 429.468 216.714C429.476 216.413 429.606 216.106 429.848 215.798C430.093 215.487 430.45 215.178 430.898 214.877C431.796 214.276 433.052 213.716 434.488 213.239C437.36 212.284 440.936 211.664 443.774 211.694Z" fill="#EDC679" stroke="#BC9344" stroke-width="0.168909"/>
<path d="M445.789 224.611C447.488 222.337 449.469 220.615 451.295 219.667C453.127 218.715 454.776 218.556 455.839 219.349C456.902 220.143 457.216 221.769 456.824 223.796C456.433 225.817 455.344 228.205 453.645 230.479C451.948 232.752 449.294 235.114 446.85 236.807C445.629 237.654 444.463 238.331 443.498 238.746C443.015 238.954 442.586 239.095 442.226 239.16C441.87 239.224 441.594 239.211 441.404 239.125C441.166 238.94 440.995 238.655 440.889 238.277C440.782 237.896 440.743 237.426 440.765 236.886C440.809 235.807 441.097 234.463 441.559 233.021C442.482 230.139 444.091 226.885 445.789 224.611Z" fill="#EDC679" stroke="#BC9344" stroke-width="0.168909"/>
<path d="M456.709 230.582C456.186 227.793 456.26 225.169 456.8 223.183C457.34 221.19 458.339 219.869 459.643 219.624C460.947 219.38 462.357 220.25 463.582 221.911C464.804 223.567 465.824 225.986 466.347 228.776C466.87 231.564 466.81 235.116 466.401 238.06C466.197 239.533 465.906 240.849 465.558 241.841C465.384 242.336 465.197 242.748 465.001 243.056C464.807 243.362 464.61 243.556 464.418 243.637C464.121 243.688 463.795 243.62 463.446 243.442C463.093 243.263 462.72 242.973 462.338 242.592C461.574 241.828 460.78 240.706 460.032 239.39C458.536 236.759 457.232 233.371 456.709 230.582Z" fill="#EDC679" stroke="#BC9344" stroke-width="0.168909"/>
<path d="M469.183 227.336C466.659 226.037 464.632 224.369 463.395 222.725C462.153 221.075 461.722 219.476 462.329 218.296C462.936 217.117 464.488 216.537 466.552 216.588C468.609 216.639 471.145 217.318 473.669 218.616C476.191 219.914 478.96 222.14 481.034 224.269C482.072 225.334 482.933 226.372 483.502 227.254C483.787 227.696 483.997 228.096 484.12 228.44C484.243 228.781 484.275 229.055 484.222 229.256C484.08 229.522 483.826 229.738 483.471 229.905C483.113 230.074 482.656 230.19 482.12 230.258C481.048 230.393 479.675 230.331 478.177 230.114C475.182 229.682 471.706 228.634 469.183 227.336Z" fill="#EDC679" stroke="#BC9344" stroke-width="0.168909"/>
<path d="M475.873 216.993C473.115 217.665 470.491 217.732 468.479 217.3C466.46 216.867 465.087 215.94 464.773 214.652C464.459 213.363 465.252 211.909 466.845 210.595C468.433 209.286 470.793 208.138 473.551 207.466C476.307 206.794 479.857 206.663 482.82 206.913C484.301 207.038 485.631 207.258 486.639 207.552C487.144 207.699 487.565 207.864 487.883 208.043C488.199 208.22 488.403 208.406 488.495 208.593C488.561 208.887 488.511 209.216 488.352 209.575C488.192 209.937 487.923 210.324 487.563 210.727C486.841 211.531 485.763 212.384 484.489 213.201C481.942 214.836 478.63 216.321 475.873 216.993Z" fill="#EDC679" stroke="#BC9344" stroke-width="0.168909"/>
<path d="M472.553 204.166C471.206 206.664 469.498 208.658 467.83 209.863C466.157 211.072 464.549 211.472 463.382 210.842C462.214 210.213 461.665 208.65 461.756 206.587C461.847 204.532 462.575 202.009 463.923 199.511C465.269 197.015 467.549 194.29 469.718 192.257C470.802 191.241 471.857 190.4 472.751 189.848C473.197 189.572 473.602 189.369 473.948 189.253C474.291 189.137 474.566 189.11 474.766 189.167C475.029 189.314 475.24 189.572 475.4 189.93C475.562 190.292 475.669 190.751 475.726 191.288C475.841 192.362 475.752 193.734 475.507 195.227C475.015 198.214 473.9 201.668 472.553 204.166Z" fill="#EDC679" stroke="#BC9344" stroke-width="0.168909"/>
<path d="M461.649 198.702C462.221 201.482 462.193 204.107 461.689 206.102C461.183 208.104 460.208 209.443 458.908 209.71C457.609 209.977 456.184 209.132 454.929 207.493C453.679 205.859 452.617 203.458 452.045 200.678C451.473 197.9 451.47 194.347 451.827 191.396C452.006 189.92 452.274 188.598 452.604 187.601C452.769 187.103 452.949 186.688 453.139 186.376C453.328 186.067 453.521 185.87 453.712 185.785C454.008 185.729 454.335 185.791 454.688 185.963C455.044 186.136 455.421 186.419 455.81 186.794C456.588 187.543 457.401 188.652 458.172 189.954C459.714 192.559 461.077 195.923 461.649 198.702Z" fill="#EDC679" stroke="#BC9344" stroke-width="0.168909"/>
<circle cx="459.041" cy="214.361" r="13.4679" transform="rotate(-13.6978 459.041 214.361)" fill="#6F4A29"/>
</svg>